<svg xmlns="http://www.w3.org/2000/svg" width="100" height="221" fill="none" viewBox="0 0 100 221">
  <path fill="#478BF9" d="M99.11 171.065c0 27.323-22.232 49.556-49.555 49.556C22.233 220.621 0 198.388 0 171.065c0-27.322 22.233-49.555 49.555-49.555 27.323 0 49.556 22.233 49.556 49.555Zm-95.54 0c0 25.356 20.63 45.986 45.985 45.986 25.356 0 45.986-20.63 45.986-45.986 0-25.355-20.63-45.985-45.986-45.985-25.355 0-45.985 20.63-45.985 45.985ZM99.114 49.93a1.78 1.78 0 1 1-3.56 0c0-25.356-20.63-45.986-45.986-45.986-25.355 0-45.985 20.63-45.985 45.985a1.78 1.78 0 1 1-3.56 0C.023 22.607 22.256.374 49.58.374c27.322 0 49.555 22.233 49.555 49.555h-.02Z"/>
  <path fill="#478BF9" d="M40.012 162.312a3.952 3.952 0 0 0 3.008 3.84l3.362.844v-8.65h-2.394a3.971 3.971 0 0 0-3.966 3.966h-.01Zm12.718 21.473h2.393a3.971 3.971 0 0 0 3.966-3.966 3.952 3.952 0 0 0-3.008-3.841l-3.362-.843v8.65h.01Z"/>
  <path fill="#478BF9" d="M49.556 130.742c-22.233 0-40.333 18.09-40.333 40.334 0 22.243 18.09 40.333 40.333 40.333s40.334-18.09 40.334-40.333c0-22.244-18.09-40.334-40.334-40.334Zm15.905 33.964H59.1v-3.185a3.192 3.192 0 0 0-3.185-3.186H52.73v10.243l4.902 1.228a10.31 10.31 0 0 1 7.817 10.013c0 5.693-4.632 10.325-10.325 10.325H52.73v8.057h-6.36v-8.057h-3.185c-5.267 0-9.544-4.278-9.544-9.544v-3.185h6.36v3.185a3.192 3.192 0 0 0 3.184 3.185h3.185v-10.243l-4.902-1.228a10.31 10.31 0 0 1-7.817-10.013c0-5.693 4.632-10.325 10.325-10.325h2.394v-8.056h6.36v8.056h3.185c5.267 0 9.545 4.278 9.545 9.545v3.185ZM99.173 49.17v119.595a1.779 1.779 0 1 1-3.56 0V49.17a1.779 1.779 0 1 1 3.56 0Zm-95.535-.26v119.595a1.78 1.78 0 1 1-3.56 0V48.91a1.78 1.78 0 1 1 3.56 0Z"/>
</svg>
