<svg xmlns="http://www.w3.org/2000/svg" width="101" height="101" fill="none" viewBox="0 0 101 101">
  <path fill="#fff" d="M14.828 85.452c-19.49-19.49-19.49-51.199 0-70.688 19.49-19.49 51.198-19.49 70.688 0 19.49 19.49 19.49 51.198 0 70.688-19.49 19.489-51.198 19.489-70.688 0Zm68.333-68.333c-18.191-18.19-47.786-18.19-65.972 0-18.192 18.191-18.192 47.786 0 65.972 18.19 18.191 47.785 18.191 65.972 0 18.191-18.19 18.191-47.785 0-65.972Z"/>
  <path fill="#fff" d="M83.7 39.505a1.643 1.643 0 0 1-.398-.645c-1.73-5.119-4.555-9.654-8.394-13.494a34.663 34.663 0 0 0-13.494-8.394 1.667 1.667 0 0 1-1.133-1.578V3.246a1.664 1.664 0 0 1 2.067-1.616 49.872 49.872 0 0 1 23.158 13.134 49.929 49.929 0 0 1 13.13 23.158 1.689 1.689 0 0 1-.304 1.431 1.66 1.66 0 0 1-1.313.64H84.87c-.455 0-.872-.185-1.18-.493l.01.005ZM77.264 23.01a37.979 37.979 0 0 1 8.792 13.65h8.787a46.608 46.608 0 0 0-11.688-19.54A46.562 46.562 0 0 0 63.618 5.436v8.787a37.852 37.852 0 0 1 13.65 8.792l-.004-.004ZM14.827 85.452A49.913 49.913 0 0 1 1.693 62.293a1.673 1.673 0 0 1 .304-1.426 1.66 1.66 0 0 1 1.312-.64h12.148c.716 0 1.351.455 1.579 1.133 1.73 5.118 4.554 9.654 8.394 13.494a34.664 34.664 0 0 0 13.494 8.394 1.663 1.663 0 0 1 1.132 1.578v12.148c0 .512-.237.995-.64 1.313a1.671 1.671 0 0 1-1.43.303 49.929 49.929 0 0 1-23.16-13.129v-.01ZM5.494 63.554a46.608 46.608 0 0 0 11.689 19.542 46.608 46.608 0 0 0 19.541 11.688v-8.787a37.905 37.905 0 0 1-13.65-8.788 37.98 37.98 0 0 1-8.792-13.65H5.494v-.005Zm55.283 34.591a1.663 1.663 0 0 1-.488-1.18V84.817c0-.716.455-1.351 1.133-1.579 5.119-1.73 9.655-4.555 13.494-8.394A34.642 34.642 0 0 0 83.31 61.35a1.663 1.663 0 0 1 1.578-1.133h12.148c.512 0 .995.238 1.313.64.318.403.427.934.303 1.427A49.978 49.978 0 0 1 85.52 85.442a49.873 49.873 0 0 1-23.16 13.134 1.673 1.673 0 0 1-1.426-.303c-.052-.048-.105-.09-.152-.138l-.005.01Zm2.844-12.153v8.787a46.607 46.607 0 0 0 19.542-11.688A46.657 46.657 0 0 0 94.85 63.55h-8.787c-1.92 5.147-4.873 9.73-8.792 13.65-3.916 3.915-8.504 6.873-13.65 8.792ZM2.13 39.505a1.667 1.667 0 0 1-.436-1.583 49.872 49.872 0 0 1 13.134-23.158A49.936 49.936 0 0 1 37.986 1.63a1.673 1.673 0 0 1 1.427.303c.402.318.64.801.64 1.313v12.148c0 .716-.456 1.35-1.133 1.578-5.12 1.73-9.655 4.555-13.494 8.394a34.664 34.664 0 0 0-8.394 13.494 1.663 1.663 0 0 1-1.579 1.133H3.305c-.445 0-.872-.175-1.18-.483l.005-.005Zm34.59-34.07a46.609 46.609 0 0 0-19.54 11.69A46.658 46.658 0 0 0 5.49 36.666h8.788c1.92-5.147 4.872-9.73 8.792-13.65a37.981 37.981 0 0 1 13.65-8.793V5.436Z"/>
  <path fill="#fff" d="M77.267 23.01c-14.94-14.939-39.254-14.944-54.194 0-14.944 14.945-14.94 39.255 0 54.195 14.94 14.94 39.25 14.944 54.195 0 14.944-14.945 14.94-39.255 0-54.194Z"/>
  <path fill="#110A1D" d="m63.994 63.785-27.527.183a2.1 2.1 0 0 0-2.086 2.113l.006.981a2.1 2.1 0 0 0 2.114 2.086l27.528-.182a2.1 2.1 0 0 0 2.085-2.114l-.006-.981a2.1 2.1 0 0 0-2.114-2.086ZM40.217 47.169c-.298 0-.602-.066-.877-.2l-2.147-1.037a1.984 1.984 0 0 1-.971-2.522l.986-2.455a1.977 1.977 0 0 1 2.815-.98l2.56 1.459a1.985 1.985 0 0 1 .65 2.844l-1.404 2.033c-.365.53-.972.853-1.617.853l.005.005Zm19.815-.133a1.986 1.986 0 0 1-1.626-.834l-1.388-1.957c-.323-.45-.436-1.02-.323-1.56.114-.54.455-1.014.934-1.294l2.64-1.55c.299-.175.64-.27.986-.274a1.983 1.983 0 0 1 1.844 1.218l.995 2.384a1.991 1.991 0 0 1-.938 2.536l-2.247 1.123a2 2 0 0 1-.872.208h-.005Z"/>
  <path fill="#110A1D" d="M38.055 62.128a2.86 2.86 0 0 1-2.707-1.887l-4.592-12.64a4.877 4.877 0 0 1-2.716.435 4.85 4.85 0 0 1-4.223-4.773 4.855 4.855 0 0 1 4.815-4.881 4.848 4.848 0 0 1 4.877 4.815 4.79 4.79 0 0 1-.322 1.763 5.304 5.304 0 0 1-.436.868l8.735 4.227 6.683-9.683a4.893 4.893 0 0 1-2.052-1.654 4.82 4.82 0 0 1-.896-2.773 4.855 4.855 0 0 1 5.176-4.872 4.858 4.858 0 0 1 4.503 4.474 4.833 4.833 0 0 1-.863 3.143 4.892 4.892 0 0 1-1.237 1.223 4.397 4.397 0 0 1-.801.44l6.801 9.584 8.594-4.299a5.01 5.01 0 0 1-.384-.967 4.713 4.713 0 0 1-.176-1.265 4.844 4.844 0 1 1 9.688-.062 4.853 4.853 0 0 1-4.507 4.868l-.304.01a4.96 4.96 0 0 1-1.445-.21 4.705 4.705 0 0 1-.872-.364L65.08 60.042a2.86 2.86 0 0 1-2.682 1.92l-24.343.16v.006Z"/>
</svg>
