<svg xmlns="http://www.w3.org/2000/svg" width="100" height="100" fill="none" viewBox="0 0 100 100">
  <path fill="#fff" d="M49.545 99.123C22.222 99.123 0 76.891 0 49.578 0 22.266 22.233.033 49.545.033S99.09 22.266 99.09 49.578c0 27.313-22.233 49.545-49.545 49.545Zm0-95.79c-25.501 0-46.246 20.744-46.246 46.245 0 25.501 20.745 46.246 46.246 46.246s46.246-20.745 46.246-46.246c0-25.5-20.745-46.245-46.246-46.245Z"/>
  <path fill="#fff" d="M81.873 14.224 66.535 29.562l3.017 3.018 15.339-15.338-3.018-3.018ZM29.076 67.023 13.738 82.361l3.018 3.018L32.094 70.04l-3.018-3.018Zm40.941-.003L67 70.038l15.338 15.338 3.018-3.017L70.017 67.02Zm-53.25-53.26-3.017 3.017 15.33 15.33 3.018-3.017-15.33-15.33Zm44.874 37.15c1-.998 1-2.612 0-3.6l-2.123-2.114a2.54 2.54 0 0 0-3.602 0l-1.145 1.145-1.322-1.322a2.538 2.538 0 0 0-3.601 0l-1.145 1.156-1.322-1.333a2.538 2.538 0 0 0-3.601 0l-7.026 7.026c-.052.052-.052.136 0 .198a2.425 2.425 0 0 0 3.414 0l4.528-4.528a1.25 1.25 0 0 1 1.77 0l.332.333a.15.15 0 0 1 0 .219l-3.778 3.778c-.052.052-.052.136 0 .198a2.425 2.425 0 0 0 3.414 0l4.34-4.34a1.25 1.25 0 0 1 1.77 0l.333.333c.052.052.052.135 0 .198L49.234 51.9c-.052.052-.052.135 0 .197a2.425 2.425 0 0 0 3.414 0l4.194-4.194a1.25 1.25 0 0 1 1.77 0l.718.718a.735.735 0 0 1 0 1.03l-.114.115a.735.735 0 0 1-1.03 0l-.927-.927c-.052-.052-.135-.052-.198 0l-1.603 1.603c-.052.052-.052.136 0 .198l1.447 1.447c1 1 2.613 1 3.601 0l1.145-1.145-.01-.031Z"/>
  <path fill="#fff" d="M49.546 11.576c-20.984 0-37.991 17.008-37.991 37.992 0 20.984 17.007 37.991 37.991 37.991 20.984 0 37.992-17.007 37.992-37.991 0-20.984-17.008-37.992-37.992-37.992Zm1.551 11.73c6.1.355 11.637 2.79 15.925 6.6l-5.485 5.485a18.517 18.517 0 0 0-10.44-4.33v-7.754Zm-3.091 0v7.755a18.446 18.446 0 0 0-10.44 4.33l-5.486-5.485a26.214 26.214 0 0 1 15.926-6.6Zm-18.111 8.786 5.485 5.485a18.517 18.517 0 0 0-4.33 10.44h-7.755a26.215 26.215 0 0 1 6.6-15.925Zm-6.6 19.016h7.755a18.446 18.446 0 0 0 4.33 10.44l-5.485 5.486a26.214 26.214 0 0 1-6.6-15.926Zm24.71 24.71A26.214 26.214 0 0 1 32.08 69.22l5.486-5.485a18.517 18.517 0 0 0 10.44 4.33v7.755ZM33.58 49.558c0-8.817 7.151-15.967 15.967-15.967s15.967 7.15 15.967 15.966c0 8.817-7.15 15.967-15.967 15.967-8.816 0-15.967-7.15-15.967-15.967Zm17.518 26.26v-7.754a18.446 18.446 0 0 0 10.44-4.33l5.485 5.485a26.214 26.214 0 0 1-15.925 6.6Zm18.11-8.784-5.484-5.486a18.517 18.517 0 0 0 4.33-10.44h7.754a26.214 26.214 0 0 1-6.6 15.926Zm-1.154-19.017a18.445 18.445 0 0 0-4.33-10.44l5.485-5.485a26.215 26.215 0 0 1 6.6 15.925h-7.755Z"/>
</svg>
