<svg xmlns="http://www.w3.org/2000/svg" width="100" height="100" fill="none" viewBox="0 0 100 100">
  <path fill="#7DDACF" d="M49.733 99.39C22.41 99.39.187 77.156.187 49.843.187 22.532 22.42.3 49.733.3c27.312 0 49.545 22.233 49.545 49.545 0 27.313-22.233 49.545-49.546 49.545Zm0-95.791c-25.502 0-46.246 20.744-46.246 46.245 0 25.502 20.744 46.246 46.245 46.246 25.502 0 46.246-20.744 46.246-46.246 0-25.5-20.744-46.245-46.245-46.245Z"/>
  <path fill="#7DDACF" d="M82.065 14.491 66.726 29.83l3.018 3.018L85.082 17.51l-3.017-3.018ZM29.264 67.29 13.926 82.628l3.017 3.018 15.338-15.338-3.017-3.018Zm40.929.008-3.017 3.017 15.338 15.338 3.017-3.017-15.338-15.338ZM16.94 14.037l-3.018 3.017 15.33 15.331 3.018-3.017-15.33-15.331Zm44.877 37.14a2.54 2.54 0 0 0 0-3.602l-2.124-2.113a2.538 2.538 0 0 0-3.601 0l-1.145 1.145-1.322-1.322a2.538 2.538 0 0 0-3.601 0l-1.145 1.156-1.322-1.332c-1-1-2.613-1-3.602 0l-7.026 7.025c-.052.052-.052.136 0 .198a2.425 2.425 0 0 0 3.415 0l4.527-4.528a1.25 1.25 0 0 1 1.77 0l.333.334a.15.15 0 0 1 0 .218l-3.778 3.778c-.052.052-.052.136 0 .198a2.425 2.425 0 0 0 3.414 0l4.34-4.34a1.25 1.25 0 0 1 1.77 0l.333.333c.052.052.052.135 0 .198l-3.643 3.643c-.053.052-.053.135 0 .197a2.425 2.425 0 0 0 3.414 0l4.194-4.194a1.25 1.25 0 0 1 1.77 0l.718.718a.735.735 0 0 1 0 1.03l-.115.115a.735.735 0 0 1-1.03 0l-.926-.926c-.053-.053-.136-.053-.198 0l-1.603 1.602c-.052.052-.052.136 0 .198l1.447 1.447c.999 1 2.612 1 3.601 0l1.145-1.145-.01-.031Z"/>
  <path fill="#7DDACF" d="M49.734 11.853c-20.984 0-37.992 17.008-37.992 37.991 0 20.984 17.008 37.992 37.992 37.992 20.983 0 37.991-17.008 37.991-37.992 0-20.983-17.008-37.991-37.991-37.991Zm1.55 11.73c6.1.355 11.637 2.79 15.926 6.6l-5.486 5.485a18.517 18.517 0 0 0-10.44-4.33v-7.754Zm-3.09 0v7.755a18.446 18.446 0 0 0-10.44 4.33l-5.486-5.485a26.214 26.214 0 0 1 15.925-6.6Zm-18.112 8.785 5.485 5.486a18.517 18.517 0 0 0-4.33 10.44h-7.754a26.215 26.215 0 0 1 6.6-15.925Zm-6.599 19.017h7.755a18.446 18.446 0 0 0 4.33 10.44l-5.486 5.485a26.215 26.215 0 0 1-6.599-15.925Zm24.71 24.71a26.215 26.215 0 0 1-15.925-6.599l5.485-5.485a18.516 18.516 0 0 0 10.44 4.33v7.754Zm-14.426-26.26c0-8.817 7.15-15.968 15.967-15.968 8.816 0 15.967 7.151 15.967 15.967S58.55 65.801 49.734 65.801c-8.817 0-15.967-7.15-15.967-15.967Zm17.517 26.26v-7.754a18.445 18.445 0 0 0 10.44-4.33l5.486 5.485a26.215 26.215 0 0 1-15.925 6.6Zm18.111-8.785-5.485-5.485a18.517 18.517 0 0 0 4.33-10.44h7.755a26.214 26.214 0 0 1-6.6 15.925ZM68.24 48.294a18.446 18.446 0 0 0-4.33-10.44l5.486-5.486a26.214 26.214 0 0 1 6.599 15.926H68.24Z"/>
</svg>
