<svg xmlns="http://www.w3.org/2000/svg" width="100" height="100" fill="none" viewBox="0 0 100 100">
  <path fill="#478BF9" d="M50.397 99.62C23.074 99.62.852 77.389.852 50.077.852 22.763 23.084.53 50.397.53c27.312 0 49.545 22.232 49.545 49.545 0 27.312-22.233 49.545-49.545 49.545Zm0-95.79C24.895 3.83 4.15 24.574 4.15 50.076c0 25.5 20.744 46.245 46.246 46.245 25.5 0 46.245-20.744 46.245-46.245 0-25.502-20.744-46.246-46.245-46.246Z"/>
  <path fill="#478BF9" d="M82.717 14.729 67.38 30.067l3.018 3.018 15.338-15.338-3.018-3.018ZM29.924 67.52 14.586 82.86l3.018 3.017 15.338-15.338-3.018-3.017Zm40.938.016-3.018 3.017 15.338 15.338 3.018-3.017-15.338-15.338ZM17.6 14.267l-3.018 3.018 15.331 15.33 3.018-3.017L17.6 14.268Zm44.88 37.141c1-1 1-2.613 0-3.602l-2.123-2.113a2.537 2.537 0 0 0-3.6 0l-1.146 1.145-1.322-1.322a2.538 2.538 0 0 0-3.601 0l-1.145 1.156-1.322-1.332c-1-1-2.613-1-3.601 0l-7.026 7.025c-.052.052-.052.136 0 .198a2.425 2.425 0 0 0 3.414 0l4.527-4.528a1.25 1.25 0 0 1 1.77 0l.333.333a.151.151 0 0 1 0 .219l-3.778 3.778c-.052.052-.052.136 0 .198a2.425 2.425 0 0 0 3.414 0l4.34-4.34a1.25 1.25 0 0 1 1.77 0l.333.333c.052.052.052.135 0 .198l-3.643 3.643c-.052.052-.052.135 0 .197a2.425 2.425 0 0 0 3.414 0l4.194-4.194a1.25 1.25 0 0 1 1.77 0l.718.718a.735.735 0 0 1 0 1.03l-.114.115a.735.735 0 0 1-1.03 0l-.927-.926c-.052-.053-.136-.053-.198 0l-1.603 1.602c-.052.052-.052.136 0 .198l1.447 1.447c1 1 2.612 1 3.601 0l1.145-1.145-.01-.031Z"/>
  <path fill="#478BF9" d="M50.398 12.084c-20.984 0-37.992 17.008-37.992 37.992 0 20.983 17.008 37.991 37.992 37.991 20.984 0 37.991-17.008 37.991-37.991 0-20.984-17.007-37.992-37.991-37.992Zm1.55 11.73c6.1.354 11.638 2.79 15.926 6.6l-5.485 5.485a18.517 18.517 0 0 0-10.44-4.33v-7.755Zm-3.09 0v7.755a18.445 18.445 0 0 0-10.44 4.33l-5.486-5.485a26.214 26.214 0 0 1 15.925-6.6ZM30.745 32.6l5.486 5.486a18.517 18.517 0 0 0-4.33 10.44h-7.755a26.214 26.214 0 0 1 6.6-15.926Zm-6.599 19.017h7.755a18.446 18.446 0 0 0 4.33 10.44l-5.486 5.485a26.214 26.214 0 0 1-6.599-15.925Zm24.71 24.71a26.214 26.214 0 0 1-15.925-6.599l5.485-5.485a18.517 18.517 0 0 0 10.44 4.33v7.754ZM34.43 50.067c0-8.817 7.15-15.968 15.967-15.968 8.816 0 15.967 7.151 15.967 15.967s-7.151 15.967-15.967 15.967-15.967-7.15-15.967-15.967Zm17.518 26.26v-7.754a18.445 18.445 0 0 0 10.44-4.33l5.485 5.485a26.214 26.214 0 0 1-15.925 6.6Zm18.11-8.785-5.485-5.485a18.517 18.517 0 0 0 4.33-10.44h7.755a26.214 26.214 0 0 1-6.6 15.925Zm-1.155-19.016a18.446 18.446 0 0 0-4.33-10.44l5.486-5.486a26.214 26.214 0 0 1 6.599 15.926h-7.755Z"/>
</svg>
