<svg xmlns="http://www.w3.org/2000/svg" width="100" height="100" fill="none" viewBox="0 0 100 100">
  <path fill="#9DADF2" d="M49.983 99.933c-12.699 0-25.387-4.83-35.057-14.5-19.329-19.329-19.329-50.773 0-70.102C24.294 5.963 36.743.811 49.983.811c13.24 0 25.688 5.152 35.056 14.52 19.329 19.329 19.329 50.773 0 70.102-9.66 9.66-22.358 14.5-35.056 14.5ZM17.529 82.83c17.892 17.893 47.005 17.893 64.897 0 17.893-17.892 17.893-47.005 0-64.898-8.67-8.67-20.193-13.437-32.454-13.437S26.188 9.273 17.518 17.933c-17.892 17.893-17.892 47.006 0 64.898h.01Z"/>
  <path fill="#9DADF2" d="M49.327 68.936c.177.426.593.676 1.03.676.146 0 .292-.031.438-.083a25.698 25.698 0 0 0 9.2-6.568 1.117 1.117 0 0 0-.093-1.572 1.117 1.117 0 0 0-1.572.094 23.264 23.264 0 0 1-8.4 5.995c-.561.24-.832.895-.593 1.458h-.01Z"/>
  <path fill="#9DADF2" d="m68.873 33.244-18.486-7.39a1.15 1.15 0 0 0-.833 0l-18.485 7.39a1.096 1.096 0 0 0-.698 1.03v13.24c.021 12.22 7.744 23.264 19.215 27.469a1.195 1.195 0 0 0 .77 0c11.47-4.216 19.193-15.249 19.214-27.469v-13.24c0-.457-.27-.863-.697-1.03Zm-1.53 14.27c-.021 11.117-6.995 21.244-17.362 25.23-10.367-3.986-17.351-14.113-17.372-25.23v-12.48l17.372-6.942 17.362 6.942v12.48Z"/>
  <path fill="#9DADF2" d="M42.258 34.982a1.103 1.103 0 0 0-.853 0l-4.403 1.76a1.096 1.096 0 0 0-.697 1.03v4.694a1.115 1.115 0 0 0 2.227 0v-3.934l3.695-1.478c.281-.115.49-.323.614-.604a1.1 1.1 0 0 0 0-.854 1.142 1.142 0 0 0-.593-.614h.01Z"/>
  <path fill="#9DADF2" d="M78.126 22.232C70.61 14.707 60.608 10.574 49.97 10.574c-10.638 0-20.63 4.143-28.156 11.658-15.519 15.52-15.519 40.78 0 56.31C29.58 86.308 39.77 90.18 49.971 90.18c10.2 0 20.39-3.882 28.155-11.636 15.52-15.52 15.52-40.781 0-56.311ZM72.62 47.514c.031 14.125-8.993 26.48-22.452 30.758a.642.642 0 0 1-.395 0C36.314 73.994 27.29 61.639 27.32 47.514V31.892c0-.26.156-.5.406-.604l22.004-8.795a.611.611 0 0 1 .24-.041c.083 0 .166.01.239.041l22.004 8.806c.25.094.406.333.406.604v15.623-.01Z"/>
</svg>
