<svg xmlns="http://www.w3.org/2000/svg" width="100" height="100" fill="none" viewBox="0 0 100 100">
  <path fill="#9DADF2" d="M49.877 99.932C22.554 99.932.332 77.7.332 50.387.332 23.075 22.565.842 49.877.842s49.545 22.233 49.545 49.545c0 27.313-22.233 49.545-49.545 49.545Zm0-95.79C24.376 4.142 3.63 24.886 3.63 50.387c0 25.501 20.745 46.246 46.246 46.246s46.245-20.745 46.245-46.246c0-25.5-20.744-46.245-46.245-46.245Z"/>
  <path fill="#9DADF2" d="M65.951 19.453c-.25 0-.5-.052-.728-.167a34.317 34.317 0 0 0-15.343-3.58 34.316 34.316 0 0 0-15.342 3.58 1.647 1.647 0 0 1-1.894-.312l-8.515-8.514a1.642 1.642 0 0 1-.468-1.374c.062-.51.354-.958.791-1.218A49.457 49.457 0 0 1 49.891.842a49.557 49.557 0 0 1 25.438 7.026c.438.26.729.708.792 1.218.062.51-.115 1.01-.469 1.374l-8.514 8.514a1.68 1.68 0 0 1-1.176.479h-.01Zm-16.07-7.047a37.64 37.64 0 0 1 15.727 3.404l6.162-6.162a46.153 46.153 0 0 0-21.89-5.506 46.152 46.152 0 0 0-21.889 5.506l6.162 6.162a37.64 37.64 0 0 1 15.727-3.404Zm-.002 87.526a49.556 49.556 0 0 1-25.44-7.025 1.646 1.646 0 0 1-.79-1.218c-.063-.51.114-1.01.468-1.374l8.514-8.514c.5-.5 1.27-.625 1.895-.313a34.317 34.317 0 0 0 15.342 3.58 34.319 34.319 0 0 0 15.342-3.58 1.647 1.647 0 0 1 1.895.313l8.514 8.514c.364.364.53.864.468 1.374-.062.51-.353.957-.79 1.218a49.456 49.456 0 0 1-25.44 7.025h.022Zm-21.89-8.805a46.152 46.152 0 0 0 21.89 5.506 46.15 46.15 0 0 0 21.889-5.506l-6.162-6.162a37.642 37.642 0 0 1-15.727 3.403 37.642 37.642 0 0 1-15.728-3.403l-6.162 6.162Zm62.994-14.5c-.438 0-.854-.166-1.166-.478l-8.515-8.515a1.65 1.65 0 0 1-.312-1.894 34.317 34.317 0 0 0 3.58-15.342 34.317 34.317 0 0 0-3.58-15.343 1.644 1.644 0 0 1 .312-1.894l8.515-8.514a1.645 1.645 0 0 1 1.374-.469c.51.063.957.354 1.217.791a49.456 49.456 0 0 1 7.026 25.44 49.456 49.456 0 0 1-7.026 25.438c-.26.437-.707.729-1.217.79h-.209v-.01Zm-6.527-10.512 6.162 6.162a46.152 46.152 0 0 0 5.506-21.89 46.15 46.15 0 0 0-5.506-21.889l-6.162 6.162a37.64 37.64 0 0 1 3.404 15.727 37.64 37.64 0 0 1-3.404 15.728ZM8.773 76.628c-.073 0-.135 0-.198-.01a1.645 1.645 0 0 1-1.218-.792A49.456 49.456 0 0 1 .332 50.387 49.456 49.456 0 0 1 7.357 24.95c.26-.438.708-.729 1.218-.791.51-.063 1.01.114 1.374.468l8.514 8.514c.5.5.625 1.27.313 1.895a34.316 34.316 0 0 0-3.581 15.342 34.317 34.317 0 0 0 3.58 15.342 1.644 1.644 0 0 1-.312 1.895L9.95 76.128c-.312.312-.728.49-1.166.49l-.01.01Zm.364-48.13a46.152 46.152 0 0 0-5.506 21.89 46.15 46.15 0 0 0 5.506 21.889l6.162-6.162a37.64 37.64 0 0 1-3.403-15.728 37.64 37.64 0 0 1 3.403-15.727l-6.162-6.162Z"/>
  <path fill="#9DADF2" d="M49.878 12.396c-20.942 0-37.992 17.039-37.992 37.991 0 20.953 17.04 37.992 37.992 37.992 20.953 0 37.992-17.04 37.992-37.992 0-20.952-17.04-37.991-37.992-37.991Zm21.38 25.511a24.473 24.473 0 0 1 3.247 10.013.368.368 0 0 1-.177.354 31.822 31.822 0 0 0-7.255 6.09.341.341 0 0 1-.385.103l-4.694-1.53a.36.36 0 0 1-.25-.301 32.68 32.68 0 0 0-3.591-11.055.368.368 0 0 1 .031-.385l2.904-3.996a.395.395 0 0 1 .302-.157h.083c3.102.687 6.287.916 9.451.656a.376.376 0 0 1 .354.188l-.02.02ZM59.182 53.291a.378.378 0 0 1-.083.281 24.852 24.852 0 0 1-9.076 6.579.332.332 0 0 1-.281 0 25.093 25.093 0 0 1-9.077-6.579.378.378 0 0 1-.083-.28 30.144 30.144 0 0 1 3.477-10.7.346.346 0 0 1 .239-.178 27.175 27.175 0 0 1 5.59-.583c1.883 0 3.757.198 5.589.583a.353.353 0 0 1 .24.177 30.353 30.353 0 0 1 3.476 10.7h-.01Zm-.562-25.834s.125-.104.25-.104c.042 0 .094 0 .146.031 3.83 1.52 7.255 4.018 9.92 7.213a.345.345 0 0 1 .051.386.357.357 0 0 1-.333.218 28.67 28.67 0 0 1-6.994-.78.37.37 0 0 1-.23-.167 29.502 29.502 0 0 1-2.903-6.422.345.345 0 0 1 .104-.375h-.01Zm-14-1.249a25.252 25.252 0 0 1 10.524 0c.135.031.25.135.28.27a31.904 31.904 0 0 0 3.55 8.786.382.382 0 0 1-.02.405l-2.884 3.977a.36.36 0 0 1-.364.145 29.65 29.65 0 0 0-11.647 0 .361.361 0 0 1-.365-.145l-2.883-3.977a.38.38 0 0 1-.02-.405 31.904 31.904 0 0 0 3.549-8.785.373.373 0 0 1 .28-.271Zm-13.79 8.39c2.664-3.206 6.088-5.704 9.919-7.214a.35.35 0 0 1 .395.073c.052.052.167.177.104.375a29.279 29.279 0 0 1-2.904 6.422.37.37 0 0 1-.229.166c-2.28.542-4.632.812-6.994.781a.357.357 0 0 1-.333-.218.345.345 0 0 1 .052-.386h-.01Zm-2.322 3.31a.368.368 0 0 1 .323-.188h.031c3.175.25 6.36.031 9.451-.656a.352.352 0 0 1 .375.146l2.904 3.997a.37.37 0 0 1 .031.385 32.674 32.674 0 0 0-3.591 11.054.389.389 0 0 1-.25.302l-4.694 1.53a.379.379 0 0 1-.385-.104 31.823 31.823 0 0 0-7.255-6.09.389.389 0 0 1-.177-.353 24.423 24.423 0 0 1 3.248-10.013l-.01-.01Zm1.135 25.646a.366.366 0 0 1-.313.25c-.072 0-.24 0-.354-.167A24.697 24.697 0 0 1 25.19 51.97a.356.356 0 0 1 .187-.343c.063-.031.23-.104.396.02a28.91 28.91 0 0 1 5.204 4.747.353.353 0 0 1 .083.27 28.567 28.567 0 0 1-1.426 6.902l.01-.01Zm10.283 9.503c-3.247-1.426-6.11-3.518-8.503-6.203a.376.376 0 0 1-.073-.385 31.85 31.85 0 0 0 2.29-9.191.359.359 0 0 1 .25-.313l4.642-1.509s.072-.02.114-.02a.35.35 0 0 1 .27.124 27.696 27.696 0 0 0 9.431 6.86.363.363 0 0 1 .218.333v4.881a.352.352 0 0 1-.218.334 31.831 31.831 0 0 0-8.046 5.027.35.35 0 0 1-.385.052l.01.01Zm16.373 1.03a.347.347 0 0 1-.27.292 25.032 25.032 0 0 1-12.283 0 .363.363 0 0 1-.27-.291.366.366 0 0 1 .145-.375 29.036 29.036 0 0 1 6.131-3.487.332.332 0 0 1 .281 0 29.56 29.56 0 0 1 6.13 3.487.382.382 0 0 1 .146.375h-.01Zm12.064-7.223a24.546 24.546 0 0 1-8.504 6.193.366.366 0 0 1-.385-.052 31.653 31.653 0 0 0-8.046-5.027.363.363 0 0 1-.219-.333v-4.882c0-.146.084-.28.219-.333a27.595 27.595 0 0 0 9.43-6.86.35.35 0 0 1 .27-.124c.042 0 .074 0 .115.02l4.642 1.51c.136.042.24.166.25.312a31.934 31.934 0 0 0 2.29 9.191.355.355 0 0 1-.073.385h.01Zm2.435-3.216a.356.356 0 0 1-.354.166.359.359 0 0 1-.312-.25 29.596 29.596 0 0 1-1.426-6.9c0-.094.021-.198.084-.27a29.3 29.3 0 0 1 5.204-4.747.36.36 0 0 1 .208-.073c.083 0 .146.031.187.052a.34.34 0 0 1 .188.343 24.696 24.696 0 0 1-3.789 11.668l.01.01Z"/>
</svg>
