<svg xmlns="http://www.w3.org/2000/svg" width="32" height="32" fill="none" viewBox="0 0 32 32">
  <g clip-path="url(#a)">
    <path fill="#478BF9" fill-rule="evenodd" d="M0 16c0 8.82 7.176 16 16 16 8.82 0 16-7.18 16-16S24.82 0 16 0 0 7.18 0 16ZM5.942 4.97A14.877 14.877 0 0 1 16 1.065c3.87 0 7.4 1.479 10.056 3.901l-1.188 1.188A13.201 13.201 0 0 0 16 2.75c-3.412 0-6.522 1.29-8.87 3.407L5.941 4.969Zm-.974.974A14.877 14.877 0 0 0 1.066 16c0 3.87 1.479 7.4 3.9 10.055l1.188-1.187A13.201 13.201 0 0 1 2.75 16c0-3.41 1.288-6.52 3.405-8.869L4.968 5.944ZM5.94 27.03A14.877 14.877 0 0 0 16 30.934c3.87 0 7.4-1.478 10.055-3.9l-1.188-1.188A13.201 13.201 0 0 1 16 29.25c-3.412 0-6.523-1.29-8.871-3.407L5.94 27.03ZM30.934 16a14.88 14.88 0 0 1-3.905 10.06l-1.187-1.188A13.201 13.201 0 0 0 29.25 16c0-3.412-1.29-6.522-3.407-8.87l1.187-1.188A14.877 14.877 0 0 1 30.934 16Z" clip-rule="evenodd"/>
    <path fill="#110A1D" d="M16 9.5c1.766 0 1.986.007 2.68.039.692.033 1.163.141 1.578.302.428.165.79.389 1.151.75.33.325.587.718.75 1.152.16.413.27.885.302 1.578.03.693.039.913.039 2.679 0 1.766-.006 1.986-.039 2.68-.032.692-.142 1.163-.302 1.578a3.174 3.174 0 0 1-.75 1.151c-.325.33-.718.586-1.151.75-.415.16-.886.27-1.579.302-.693.03-.913.039-2.679.039-1.766 0-1.986-.006-2.68-.039-.692-.032-1.163-.142-1.578-.302a3.178 3.178 0 0 1-1.151-.75 3.188 3.188 0 0 1-.75-1.151c-.16-.415-.27-.886-.302-1.579-.03-.693-.039-.913-.039-2.679 0-1.766.007-1.986.039-2.68.033-.692.141-1.163.302-1.578a3.17 3.17 0 0 1 .75-1.151 3.183 3.183 0 0 1 1.152-.75c.414-.16.885-.27 1.578-.302.693-.03.913-.039 2.679-.039Zm0 3.25a3.25 3.25 0 1 0 0 6.5 3.25 3.25 0 0 0 0-6.5Zm4.225-.162a.812.812 0 1 0-1.624 0 .812.812 0 0 0 1.624 0ZM16 14.05a1.95 1.95 0 1 1 0 3.9 1.95 1.95 0 0 1 0-3.9Z"/>
  </g>
  <defs>
    <clipPath id="a">
      <path fill="#fff" d="M0 0h32v32H0z"/>
    </clipPath>
  </defs>
</svg>
