<svg xmlns="http://www.w3.org/2000/svg" width="32" height="32" fill="none" viewBox="0 0 32 32">
  <g clip-path="url(#a)">
    <path fill="#478BF9" fill-rule="evenodd" d="M0 16c0 8.82 7.176 16 16 16 8.82 0 16-7.18 16-16S24.82 0 16 0 0 7.18 0 16ZM5.942 4.97A14.877 14.877 0 0 1 16 1.065c3.87 0 7.4 1.479 10.056 3.901l-1.188 1.188A13.201 13.201 0 0 0 16 2.75c-3.412 0-6.522 1.29-8.87 3.407L5.941 4.969Zm-.974.974A14.877 14.877 0 0 0 1.066 16c0 3.87 1.479 7.4 3.9 10.055l1.188-1.187A13.201 13.201 0 0 1 2.75 16c0-3.41 1.288-6.52 3.405-8.869L4.968 5.944ZM5.94 27.03A14.877 14.877 0 0 0 16 30.934c3.87 0 7.4-1.478 10.055-3.9l-1.188-1.188A13.201 13.201 0 0 1 16 29.25c-3.412 0-6.523-1.29-8.871-3.407L5.94 27.03ZM30.934 16a14.88 14.88 0 0 1-3.905 10.06l-1.187-1.188A13.201 13.201 0 0 0 29.25 16c0-3.412-1.29-6.522-3.407-8.87l1.187-1.188A14.877 14.877 0 0 1 30.934 16Z" clip-rule="evenodd"/>
    <path fill="#110A1D" d="M20.644 11.132s1.133-.442 1.038.631c-.031.442-.314 1.989-.535 3.662l-.755 4.955s-.063.726-.63.852c-.566.126-1.416-.442-1.574-.568-.126-.095-2.36-1.515-3.147-2.21-.221-.189-.473-.567.031-1.01l3.305-3.156c.378-.378.755-1.262-.819-.189l-4.407 2.998s-.503.316-1.447.032l-2.047-.631s-.755-.474.535-.947c3.148-1.483 7.02-2.998 10.451-4.419Z"/>
  </g>
  <defs>
    <clipPath id="a">
      <path fill="#fff" d="M0 0h32v32H0z"/>
    </clipPath>
  </defs>
</svg>
