<svg xmlns="http://www.w3.org/2000/svg" width="32" height="32" fill="none" viewBox="0 0 32 32">
  <g clip-path="url(#a)">
    <path fill="#478BF9" fill-rule="evenodd" d="M0 16c0 8.82 7.176 16 16 16 8.82 0 16-7.18 16-16S24.82 0 16 0 0 7.18 0 16ZM5.942 4.97A14.877 14.877 0 0 1 16 1.065c3.87 0 7.4 1.479 10.056 3.901l-1.188 1.188A13.201 13.201 0 0 0 16 2.75c-3.412 0-6.522 1.29-8.87 3.407L5.941 4.969Zm-.974.974A14.877 14.877 0 0 0 1.066 16c0 3.87 1.479 7.4 3.9 10.055l1.188-1.187A13.201 13.201 0 0 1 2.75 16c0-3.41 1.288-6.52 3.405-8.869L4.968 5.944ZM5.94 27.03A14.877 14.877 0 0 0 16 30.934c3.87 0 7.4-1.478 10.055-3.9l-1.188-1.188A13.201 13.201 0 0 1 16 29.25c-3.412 0-6.523-1.29-8.871-3.407L5.94 27.03ZM30.934 16a14.88 14.88 0 0 1-3.905 10.06l-1.187-1.188A13.201 13.201 0 0 0 29.25 16c0-3.412-1.29-6.522-3.407-8.87l1.187-1.188A14.877 14.877 0 0 1 30.934 16Z" clip-rule="evenodd"/>
    <path fill="#110A1D" fill-rule="evenodd" d="M17.012 9.925c.373 0 .675.302.675.675a2.7 2.7 0 0 0 2.7 2.7.675.675 0 1 1 0 1.35 4.05 4.05 0 0 1-2.7-1.032V18.7a3.375 3.375 0 1 1-3.375-3.375.675.675 0 1 1 0 1.35 2.025 2.025 0 1 0 2.025 2.025v-8.1c0-.373.303-.675.675-.675Z" clip-rule="evenodd"/>
  </g>
  <defs>
    <clipPath id="a">
      <path fill="#fff" d="M0 0h32v32H0z"/>
    </clipPath>
  </defs>
</svg>
