<svg xmlns="http://www.w3.org/2000/svg" width="32" height="32" fill="none" viewBox="0 0 32 32">
  <g clip-path="url(#a)">
    <path fill="#478BF9" fill-rule="evenodd" d="M0 16c0 8.82 7.176 16 16 16 8.82 0 16-7.18 16-16S24.82 0 16 0 0 7.18 0 16ZM5.942 4.97A14.877 14.877 0 0 1 16 1.065c3.87 0 7.4 1.479 10.056 3.901l-1.188 1.188A13.201 13.201 0 0 0 16 2.75c-3.412 0-6.522 1.29-8.87 3.407L5.941 4.969Zm-.974.974A14.877 14.877 0 0 0 1.066 16c0 3.87 1.479 7.4 3.9 10.055l1.188-1.187A13.201 13.201 0 0 1 2.75 16c0-3.41 1.288-6.52 3.405-8.869L4.968 5.944ZM5.94 27.03A14.877 14.877 0 0 0 16 30.934c3.87 0 7.4-1.478 10.055-3.9l-1.188-1.188A13.201 13.201 0 0 1 16 29.25c-3.412 0-6.523-1.29-8.871-3.407L5.94 27.03ZM30.934 16a14.88 14.88 0 0 1-3.905 10.06l-1.187-1.188A13.201 13.201 0 0 0 29.25 16c0-3.412-1.29-6.522-3.407-8.87l1.187-1.188A14.877 14.877 0 0 1 30.934 16Z" clip-rule="evenodd"/>
    <path fill="#110A1D" d="M21.312 13.539v.374c0 3.768-2.754 8.087-7.791 8.087a7.416 7.416 0 0 1-4.188-1.291 5.366 5.366 0 0 0 4.054-1.171 2.66 2.66 0 0 1-1.587-.56 2.83 2.83 0 0 1-.971-1.42c.17.037.344.056.519.056.243 0 .486-.034.72-.101a2.712 2.712 0 0 1-1.578-.985 2.902 2.902 0 0 1-.616-1.803v-.037c.38.22.805.34 1.24.351a2.823 2.823 0 0 1-1.15-1.705 2.92 2.92 0 0 1 .288-2.06 7.84 7.84 0 0 0 2.52 2.11c.974.513 2.04.806 3.13.862a2.479 2.479 0 0 1-.075-.651c-.02-.58.132-1.154.437-1.64a2.746 2.746 0 0 1 1.265-1.083 2.626 2.626 0 0 1 1.634-.132 2.703 2.703 0 0 1 1.41.867 5.493 5.493 0 0 0 1.74-.692 2.844 2.844 0 0 1-1.221 1.598 5.563 5.563 0 0 0 1.575-.471 5.74 5.74 0 0 1-1.355 1.497Z"/>
  </g>
  <defs>
    <clipPath id="a">
      <path fill="#fff" d="M0 0h32v32H0z"/>
    </clipPath>
  </defs>
</svg>
