<svg xmlns="http://www.w3.org/2000/svg" width="16" height="16" fill="none" viewBox="0 0 16 16">
  <path fill="#9DADF2" d="M14.17 3.719C12.798 1.84 11 .775 8.635.5a11.684 11.684 0 0 1 2.354 4.22c1.106-.229 2.154-.527 3.18-1.001ZM4.25 5.523c-.42-.11-.828-.217-1.23-.341-.36-.116-.714-.249-1.068-.381-.2-.075-.4-.15-.601-.222C.162 6.67.274 9.636 1.345 11.386c.599-.188 1.193-.377 1.792-.567h.001l1.633-.516a11.48 11.48 0 0 1 .006-4.641 76.544 76.544 0 0 0-.527-.14Zm8.696-.365-1.716.545c.316 1.533.304 3.09 0 4.594 1.16.369 2.29.726 3.431 1.083 1.125-1.926 1.113-4.852 0-6.766l-1.715.544ZM5.72 10.227a10.424 10.424 0 0 1-.018-4.401c.239.014.473.03.705.047.54.038 1.066.076 1.59.076.525 0 1.05-.038 1.59-.076.232-.016.467-.033.706-.047.322 1.434.31 2.903-.006 4.395a16.81 16.81 0 0 0-4.568.006Zm8.45 2.048c-1.36 1.879-3.163 2.938-5.529 3.225 1.09-1.276 1.868-2.657 2.343-4.214 1.1.21 2.143.527 3.185.99ZM7.359.5c-2.366.28-4.17 1.346-5.575 3.283 1.101.34 2.138.662 3.21.995C5.49 3.157 6.263 1.782 7.358.5Zm0 15c-2.36-.28-4.158-1.34-5.575-3.283l1.037-.32h.001l2.171-.67A11.673 11.673 0 0 0 7.36 15.5ZM10.04 4.86a10.412 10.412 0 0 0-2.043-3.664C7.06 2.303 6.381 3.496 5.96 4.86a15.13 15.13 0 0 0 4.082 0Zm-2.037 9.943a10.336 10.336 0 0 1-2.044-3.657c1.365-.193 2.7-.188 4.088-.006a10.567 10.567 0 0 1-2.044 3.663Z"/>
</svg>
